<svg width="120.000000" height="41.000000" viewBox="0 0 120 41" fill="none" xmlns="http://www.w3.org/2000/svg" xmlns:xlink="http://www.w3.org/1999/xlink">
	<desc>
			Created with Pixso.
	</desc>
	<defs/>
	<path d="M45.5178 13.4121C45.3324 13.2219 45.089 13.104 44.829 13.0784C44.5689 13.0527 44.3083 13.1208 44.0915 13.2715C43.8746 13.4221 43.7149 13.6458 43.6395 13.9045C43.5641 14.1631 43.5777 14.4409 43.6779 14.6904C43.7781 14.9397 43.9588 15.1458 44.1892 15.2729C44.4196 15.4001 44.6855 15.4412 44.9417 15.3884C45.1979 15.3359 45.4286 15.1931 45.5946 14.9844C45.7605 14.7759 45.8515 14.5142 45.852 14.2441C45.852 14.0896 45.8225 13.9365 45.7652 13.7937C45.7078 13.6509 45.6238 13.5212 45.5178 13.4121Z" fill="#61A568" fill-opacity="1.000000" fill-rule="nonzero"/>
	<path d="M50.3524 10.0718C50.5103 9.90771 50.6177 9.69897 50.6612 9.47192C50.7047 9.24487 50.6822 9.00952 50.5967 8.79565C50.5111 8.58179 50.3663 8.39893 50.1804 8.27002C49.9946 8.14087 49.776 8.07178 49.5521 8.07104C49.3262 8.06665 49.1042 8.13208 48.9145 8.25903C48.7248 8.38623 48.5761 8.56885 48.4875 8.78369C48.3988 8.99878 48.3743 9.23608 48.417 9.46558C48.4597 9.69507 48.5677 9.90625 48.7271 10.0718C48.8325 10.1846 48.9588 10.2742 49.0984 10.3354C49.238 10.3967 49.3881 10.4282 49.5398 10.4282C49.6914 10.4282 49.8415 10.3967 49.9811 10.3354C50.1207 10.2742 50.247 10.1846 50.3524 10.0718Z" fill="#61A568" fill-opacity="1.000000" fill-rule="nonzero"/>
	<path d="M50.2946 18.3438C50.1889 18.2341 50.0632 18.147 49.9248 18.0876C49.7864 18.0281 49.638 17.9976 49.4882 17.9976C49.3383 17.9976 49.19 18.0281 49.0516 18.0876C48.9132 18.147 48.7875 18.2341 48.6817 18.3438C48.5231 18.5081 48.4152 18.717 48.3714 18.9446C48.3277 19.1721 48.3502 19.408 48.4361 19.6223C48.5219 19.8367 48.6673 20.0198 48.8539 20.1487C49.0404 20.2776 49.2597 20.3464 49.4841 20.3464C49.7084 20.3464 49.9277 20.2776 50.1142 20.1487C50.3008 20.0198 50.4462 19.8367 50.5321 19.6223C50.6179 19.408 50.6404 19.1721 50.5967 18.9446C50.553 18.717 50.445 18.5081 50.2864 18.3438L50.2946 18.3438Z" fill="#61A568" fill-opacity="1.000000" fill-rule="nonzero"/>
	<path d="M61.1188 8.92432C60.4831 6.56836 59.1766 4.46509 57.3691 2.8877C53.4215 -0.559326 48.2651 -0.704346 42.3127 1.31348C41.1721 1.69482 39.9802 1.88647 38.7816 1.88086L24.5707 1.88086C23.3735 1.88599 22.183 1.69434 21.0438 1.31348C15.0914 -0.704346 9.93502 -0.559326 5.98733 2.8877C4.17994 4.46582 2.87224 6.56885 2.23352 8.92432C-0.819027 20.1868 -0.860275 29.8623 2.83991 37.584C4.52293 41.0779 7.12997 41.7219 10.4053 40.2844C11.3593 39.8584 12.2574 39.3093 13.0783 38.6504C15.4432 36.7754 17.4197 34.428 18.8905 31.7478C19.1463 31.2744 19.3938 30.7922 19.6 30.2888C21.2501 26.6584 23.7581 24.5723 27.582 24.9775L31.6782 25.063L35.7703 24.9775C39.6066 24.5894 42.0816 26.6755 43.7564 30.2888C43.9792 30.7751 44.2102 31.2573 44.4659 31.7307C45.9337 34.418 47.9105 36.7715 50.2782 38.6504C51.099 39.3093 51.9972 39.8584 52.9512 40.2844C56.2265 41.7219 58.8335 41.0779 60.5166 37.584C64.2168 29.8623 64.1631 20.1868 61.1188 8.92432ZM14.0848 22.1833C12.5606 22.1841 11.0704 21.7175 9.8027 20.8423C8.53497 19.967 7.54668 18.7229 6.96283 17.2668C6.37897 15.8108 6.22579 14.2083 6.52265 12.6621C6.8195 11.116 7.55307 9.69556 8.63055 8.58081C9.70804 7.46582 11.081 6.7063 12.5759 6.39844C14.0708 6.09082 15.6203 6.24829 17.0286 6.85132C18.4368 7.45435 19.6405 8.47583 20.4874 9.78638C21.3343 11.0969 21.7863 12.6379 21.7863 14.2141C21.7852 16.3267 20.9736 18.3523 19.5297 19.8464C18.0857 21.3406 16.1274 22.1809 14.0848 22.1833ZM30.0942 22.1492L26.5095 22.1492L26.5095 20.5066L30.0942 20.5066L30.0942 22.1492ZM36.8469 22.1492L33.2623 22.1492L33.2623 20.5066L36.8469 20.5066L36.8469 22.1492ZM47.4071 7.03003C47.9763 6.44238 48.7478 6.1123 49.5521 6.1123C50.3565 6.1123 51.128 6.44238 51.6972 7.03003C52.1209 7.46875 52.4093 8.02734 52.526 8.6355C52.6428 9.24365 52.5825 9.87402 52.353 10.4468C52.1234 11.0195 51.7348 11.509 51.2363 11.8535C50.7377 12.1978 50.1517 12.3816 49.5521 12.3816C48.9526 12.3816 48.3666 12.1978 47.868 11.8535C47.3695 11.509 46.9809 11.0195 46.7513 10.4468C46.5217 9.87402 46.4615 9.24365 46.5782 8.6355C46.695 8.02734 46.9834 7.46875 47.4071 7.03003ZM42.5725 16.4624C42.0036 15.874 41.684 15.0762 41.684 14.2441C41.684 13.4121 42.0036 12.614 42.5725 12.0256C43.1414 11.4373 43.913 11.1067 44.7176 11.1067C45.5221 11.1067 46.2937 11.4373 46.8626 12.0256C47.1443 12.3169 47.3677 12.6628 47.5202 13.0435C47.6726 13.4241 47.7511 13.832 47.7511 14.2441C47.7511 14.656 47.6726 15.064 47.5202 15.4446C47.3677 15.8252 47.1443 16.1711 46.8626 16.4624C46.5809 16.7537 46.2465 16.9849 45.8784 17.1426C45.5104 17.3 45.1159 17.3813 44.7176 17.3813C43.913 17.3813 43.1414 17.0508 42.5725 16.4624ZM51.6477 21.4026C51.1505 21.9189 50.4954 22.2412 49.7942 22.314C49.093 22.3867 48.3891 22.2056 47.8026 21.8015C47.216 21.3975 46.7832 20.7954 46.578 20.0984C46.3727 19.4011 46.4077 18.6519 46.677 17.9783C46.9462 17.3047 47.4331 16.7488 48.0545 16.405C48.676 16.0613 49.3935 15.9512 50.0846 16.0935C50.7758 16.2358 51.3978 16.6216 51.8446 17.1853C52.2914 17.7488 52.5352 18.4553 52.5346 19.1841C52.5347 19.5969 52.4556 20.0054 52.302 20.3862C52.1483 20.7668 51.9231 21.1123 51.6394 21.4026L51.6477 21.4026ZM56.4823 16.4026C56.0576 16.8418 55.5166 17.1406 54.9277 17.2617C54.3388 17.3828 53.7284 17.3206 53.1737 17.083C52.619 16.8452 52.1449 16.4429 51.8113 15.9265C51.4777 15.4102 51.2997 14.8032 51.2997 14.1821C51.2997 13.5613 51.4777 12.9541 51.8113 12.438C52.1449 11.9216 52.619 11.519 53.1737 11.2815C53.7284 11.0437 54.3388 10.9814 54.9277 11.1025C55.5166 11.2236 56.0576 11.5227 56.4823 11.9617C57.0497 12.5522 57.3675 13.3513 57.3659 14.1838C57.3644 15.0166 57.0436 15.8145 56.474 16.4026L56.4823 16.4026Z" fill="#61A568" fill-opacity="1.000000" fill-rule="nonzero"/>
	<path d="M14.0849 8.21167C12.9369 8.21167 11.8148 8.56372 10.8603 9.22314C9.90588 9.88281 9.16198 10.8203 8.72269 11.917C8.2834 13.0139 8.16846 14.2207 8.39241 15.385C8.61636 16.5493 9.16913 17.6189 9.98083 18.4585C10.7925 19.2979 11.8267 19.8696 12.9526 20.1011C14.0784 20.3328 15.2454 20.2139 16.3059 19.7595C17.3665 19.3052 18.2729 18.5359 18.9107 17.5488C19.5484 16.5618 19.8888 15.4011 19.8888 14.2141C19.8877 12.6226 19.2759 11.0964 18.1877 9.97095C17.0995 8.84546 15.6238 8.21289 14.0849 8.21167ZM18.9813 14.2568C18.9813 14.5168 18.8813 14.7666 18.7034 14.9504C18.5255 15.1345 18.2842 15.238 18.0325 15.238L15.0212 15.238L15.0212 18.3438C15.0053 18.5933 14.8982 18.8271 14.7217 18.9983C14.5451 19.1692 14.3123 19.2644 14.0704 19.2644C13.8285 19.2644 13.5957 19.1692 13.4192 18.9983C13.2426 18.8271 13.1355 18.5933 13.1196 18.3438L13.1196 15.2295L10.1248 15.2295C9.87316 15.2295 9.63184 15.126 9.45391 14.9419C9.27599 14.7581 9.17603 14.5085 9.17603 14.2483C9.17603 13.988 9.27599 13.7383 9.45391 13.5544C9.63184 13.3704 9.87316 13.2671 10.1248 13.2671L13.132 13.2671L13.132 10.1528C13.1234 10.0181 13.1416 9.8833 13.1855 9.7561C13.2294 9.62915 13.2981 9.51294 13.3872 9.41431C13.4763 9.31592 13.5841 9.23755 13.7037 9.18384C13.8233 9.13013 13.9524 9.10254 14.0828 9.10254C14.2132 9.10254 14.3422 9.13013 14.4619 9.18384C14.5815 9.23755 14.6893 9.31592 14.7784 9.41431C14.8675 9.51294 14.9362 9.62915 14.9801 9.7561C15.024 9.8833 15.0422 10.0181 15.0336 10.1528L15.0336 13.2671L18.0449 13.2671C18.2958 13.2703 18.5352 13.3765 18.7107 13.562C18.8862 13.7473 18.9835 13.9973 18.9813 14.2568Z" fill="#61A568" fill-opacity="1.000000" fill-rule="nonzero"/>
	<path d="M54.329 13.011C54.0664 13.011 53.812 13.1055 53.6091 13.2778C53.4063 13.4502 53.2675 13.6899 53.2165 13.9563C53.1656 14.2227 53.2055 14.4993 53.3296 14.7385C53.4536 14.9778 53.6541 15.1653 53.8969 15.2688C54.1396 15.3723 54.4096 15.3855 54.6607 15.3062C54.9118 15.2268 55.1285 15.0598 55.2739 14.8337C55.4193 14.6077 55.4844 14.3364 55.458 14.0662C55.4316 13.7961 55.3154 13.5437 55.1292 13.3523C54.9161 13.1343 54.6287 13.0117 54.329 13.011Z" fill="#61A568" fill-opacity="1.000000" fill-rule="nonzero"/>
	<path d="M74.7769 13.7878C74.3948 13.9683 73.997 14.1111 73.5889 14.2144C73.2031 14.3154 72.8071 14.3699 72.4091 14.3765C71.5277 14.3958 70.6547 14.1951 69.864 13.792C69.1642 13.4321 68.5788 12.8726 68.1768 12.1794C67.7743 11.4685 67.5688 10.6567 67.5828 9.83301C67.5531 8.85913 67.7708 7.89429 68.2139 7.03442C68.6047 6.30566 69.1944 5.71216 69.9093 5.32812C70.637 4.94458 71.444 4.74976 72.2606 4.76074C72.7861 4.75732 73.3099 4.82178 73.8199 4.95264C74.2667 5.06494 74.6988 5.23267 75.1069 5.4519L74.5253 7.1582C74.2121 6.99219 73.8813 6.86475 73.5394 6.77856C73.1999 6.67603 72.8492 6.61865 72.4958 6.60791C71.6705 6.54932 70.8555 6.82471 70.2229 7.37573C69.9458 7.67798 69.733 8.03687 69.5981 8.4292C69.4631 8.82153 69.4089 9.23877 69.4391 9.65381C69.4269 10.186 69.5598 10.7109 69.8227 11.1685C70.0779 11.6001 70.4491 11.9456 70.8911 12.1624C71.3812 12.3999 71.9175 12.5181 72.4586 12.5078C72.8842 12.5337 73.3094 12.4502 73.6962 12.2646L73.6962 11.1213L72.1245 11.1213L72.1245 9.32959L75.5153 9.32959L75.5153 13.3101C75.2989 13.5137 75.0488 13.6755 74.7769 13.7878Z" fill="#61A568" fill-opacity="1.000000" fill-rule="nonzero"/>
	<path d="M82.0948 12.4138L79.0752 12.4138L78.3327 14.2568L76.563 14.2568L80.6881 4.44482L80.7871 4.44482L84.9122 14.2568L82.8497 14.2568L82.0948 12.4138ZM81.5007 10.8525L80.6221 8.56152L79.7064 10.8525L81.5007 10.8525Z" fill="#61A568" fill-opacity="1.000000" fill-rule="nonzero"/>
	<path d="M95.5631 4.45337L95.5631 14.2654L93.7687 14.2654L93.7687 9.76465L90.7987 14.1289L90.7574 14.1289L87.8987 10.0461L87.8987 14.2568L86.1662 14.2568L86.1662 4.44482L90.7822 11.2151L95.5095 4.44482L95.5631 4.45337Z" fill="#61A568" fill-opacity="1.000000" fill-rule="nonzero"/>
	<path d="M99.7088 4.8374L99.7088 14.2568L97.9144 14.2568L97.9144 4.8374L99.7088 4.8374Z" fill="#61A568" fill-opacity="1.000000" fill-rule="nonzero"/>
	<path d="M110.265 4.8374L110.265 14.6494L110.215 14.6494L103.842 8.6897L103.879 14.2568L102.06 14.2568L102.06 4.44482L102.134 4.44482L108.495 10.5068L108.458 4.8374L110.265 4.8374Z" fill="#61A568" fill-opacity="1.000000" fill-rule="nonzero"/>
	<path d="M119.253 13.7876C118.871 13.968 118.473 14.1111 118.065 14.2144C117.679 14.3154 117.284 14.3699 116.886 14.3765C116.004 14.3955 115.131 14.1951 114.34 13.792C113.641 13.4321 113.055 12.8726 112.653 12.1794C112.251 11.4685 112.045 10.6567 112.059 9.83301C112.03 8.85913 112.247 7.89429 112.69 7.03442C113.081 6.30566 113.671 5.71216 114.386 5.32788C115.114 4.93433 115.924 4.73071 116.745 4.73511C117.271 4.73169 117.795 4.79614 118.305 4.927C118.751 5.03931 119.184 5.20703 119.592 5.42603L119.01 7.13257C118.697 6.96655 118.366 6.83911 118.024 6.75293C117.685 6.65039 117.334 6.59302 116.98 6.58228C116.155 6.52368 115.34 6.79883 114.708 7.3501C114.431 7.65234 114.218 8.01123 114.083 8.40356C113.948 8.79565 113.894 9.21289 113.924 9.62817C113.912 10.1602 114.045 10.6851 114.307 11.1426C114.563 11.5745 114.934 11.9197 115.376 12.1367C115.866 12.3743 116.402 12.4924 116.943 12.4822C117.369 12.5081 117.794 12.4246 118.181 12.239L118.181 11.1213L116.609 11.1213L116.609 9.32959L120 9.32959L120 13.3098C119.781 13.5144 119.528 13.6763 119.253 13.7876Z" fill="#61A568" fill-opacity="1.000000" fill-rule="nonzero"/>
	<path d="M73.8694 29.4355C73.3413 29.6367 72.7821 29.7363 72.2194 29.73C71.3536 29.7517 70.4983 29.5305 69.7443 29.0901C69.0644 28.6877 68.5071 28.0967 68.1356 27.3835C67.7618 26.6533 67.5704 25.8379 67.5787 25.0117C67.5634 24.1328 67.7545 23.2632 68.1356 22.4775C68.4885 21.7437 69.0385 21.1306 69.7196 20.7114C70.4213 20.2893 71.222 20.0752 72.0337 20.0928C72.5536 20.0879 73.0712 20.1655 73.5683 20.3232C74.0027 20.4602 74.4185 20.6538 74.8058 20.8992L74.1004 22.6523C73.533 22.1736 72.8277 21.9033 72.0956 21.8845C71.6345 21.8843 71.1832 22.0222 70.7962 22.2812C70.3892 22.5481 70.0565 22.9202 69.8309 23.3606C69.5894 23.8274 69.466 24.3499 69.4721 24.8794C69.4602 25.4297 69.5748 25.9751 69.8062 26.4707C70.017 26.9153 70.348 27.2874 70.7591 27.5415C71.1984 27.8047 71.6994 27.9375 72.207 27.9253C72.6175 27.9314 73.0253 27.8545 73.4074 27.6992C73.7117 27.5771 73.9914 27.3979 74.2324 27.1702L74.9749 28.834C74.6388 29.0928 74.2659 29.2957 73.8694 29.4355Z" fill="#61A568" fill-opacity="1.000000" fill-rule="nonzero"/>
	<path d="M78.5596 20.1953L78.5596 27.823L82.8414 27.823L82.8414 29.6147L76.7652 29.6147L76.7652 20.1953L78.5596 20.1953Z" fill="#61A568" fill-opacity="1.000000" fill-rule="nonzero"/>
	<path d="M86.5664 26.9912C86.7426 27.2671 86.9803 27.4954 87.2594 27.6567C87.5414 27.8254 87.8617 27.9138 88.1875 27.9126C88.5293 27.916 88.8661 27.8279 89.1651 27.6567C89.448 27.499 89.6877 27.2703 89.8623 26.9912C90.0256 26.7385 90.1145 26.4419 90.118 26.1379L90.118 20.1953L91.8877 20.1953L91.8877 26.168C91.8957 26.8118 91.7238 27.4441 91.3927 27.9895C91.0653 28.5347 90.6004 28.9771 90.0479 29.2693C89.4721 29.5693 88.8364 29.7256 88.1916 29.7256C87.5469 29.7256 86.9111 29.5693 86.3354 29.2693C85.7865 28.9766 85.3256 28.5339 85.003 27.9895C84.6763 27.4426 84.5074 26.8105 84.5162 26.168L84.5162 20.1953L86.3106 20.1953L86.3106 26.1338C86.3117 26.4395 86.4007 26.738 86.5664 26.9912Z" fill="#61A568" fill-opacity="1.000000" fill-rule="nonzero"/>
	<path d="M99.8614 25.5493C100.131 25.9172 100.276 26.3672 100.274 26.8291C100.304 27.2305 100.237 27.6335 100.077 28.001C99.9182 28.3684 99.6723 28.6887 99.3623 28.9324C98.6943 29.4001 97.8997 29.6362 97.0935 29.6062L94.0574 29.6062L94.0574 20.1953L96.7305 20.1953C97.5318 20.1487 98.3274 20.3604 99.0075 20.801C99.2777 20.9988 99.4951 21.2642 99.6394 21.5723C99.7837 21.8804 99.8501 22.2212 99.8325 22.563C99.8416 22.9924 99.7436 23.417 99.5479 23.7959C99.3589 24.1499 99.081 24.4448 98.7435 24.6492C99.1826 24.8484 99.5668 25.158 99.8614 25.5493ZM95.8477 24.0476L96.945 24.0476C97.0874 24.0562 97.2299 24.0322 97.3624 23.9775C97.495 23.9231 97.6144 23.8391 97.7122 23.7319C97.8953 23.52 97.9927 23.2437 97.9845 22.9597C97.9935 22.822 97.9701 22.6841 97.9162 22.5576C97.8623 22.4314 97.7796 22.3206 97.6751 22.2346C97.4253 22.0554 97.1246 21.9683 96.8212 21.9871L95.856 21.9871L95.8477 24.0476ZM98.0175 27.6226C98.1481 27.5422 98.2554 27.4268 98.328 27.2886C98.4006 27.1506 98.4358 26.9946 98.43 26.8376C98.43 26.1721 97.9185 25.8394 96.8955 25.8394L95.8683 25.8394L95.8683 27.887L97.0192 27.887C97.3696 27.8994 97.716 27.8076 98.0175 27.6226Z" fill="#61A568" fill-opacity="1.000000" fill-rule="nonzero"/>
</svg>
